<svg xmlns="http://www.w3.org/2000/svg" xmlns:xlink="http://www.w3.org/1999/xlink" version="1.1" viewBox="0 0 100 125"  xml:space="preserve"><path d="M93.3,49.6L81.9,38.2l-2.7-2.7l-4.6-4.6L53.9,10.1c-2.1-2.1-5.6-2.1-7.7,0L25.3,30.9l-4.9,4.9l-2.4,2.4L6.7,49.6  c-2.2,2.2-2.2,5.9,0,8.1l0.1,0.1c2.2,2.2,5.9,2.2,8.1,0l3.2-3.2v30.9c0,3.3,2.7,6,6,6h12.1c2.3,0,4.2-1.6,4.6-3.8  c0.1-0.3,0.1-0.6,0.1-0.8V64.4h18.5v22.4c0,0.3,0,0.6,0.1,0.8c0.4,2.2,2.3,3.8,4.6,3.8H76c3.3,0,6-2.7,6-6V54.6l3.2,3.2  c2.2,2.2,5.9,2.2,8.1,0l0.1-0.1C95.6,55.5,95.6,51.8,93.3,49.6z"/></svg>