<svg xmlns="http://www.w3.org/2000/svg" xmlns:xlink="http://www.w3.org/1999/xlink" version="1.1" x="0px" y="0px" viewBox="0 0 35 43.75" enable-background="new 0 0 35 35" xml:space="preserve"><g><path d="M16.5,13v5.6c0,0.6-0.5,1-1,1s-1-0.4-1-1V13c-1.4-0.1-2.2,0.2-3.2-0.4c-2.9,4-4.8,10.1-4.8,13.7c0,5.9,4.9,7.2,11,7.2   s11-1.2,11-7.2c0-3.7-1.9-9.7-4.8-13.7C22.6,13.2,22,12.9,16.5,13z"/><path d="M11.5,4c0,1.5,0.8,3.7,2,5.5h-1c-0.6,0-1,0.4-1,1c0,0.6,0.4,1,1,1h10c0.6,0,1-0.4,1-1c0-0.6-0.4-1-1-1h-0.9   c1.2-1.8,2-4.1,2-5.5C13.7,8.3,15.1-3.3,11.5,4z"/></g></svg>